name rise43.5482peak65.4966fall89.1036.mot
datacolumns 19
datarows 17
range 2.91664900000000 2.94331500000000
endheader
time	ground_force1_vx	ground_force1_vy	ground_force1_vz	ground_force1_px	ground_force1_py	ground_force1_pz	ground_force2_vx	ground_force2_vy	ground_force2_vz	ground_force2_px	ground_force2_py	ground_force2_pz	ground_torque1_x	ground_torque1_y	ground_torque1_z	ground_torque2_x	ground_torque2_y	ground_torque2_z	
2.91664900000000	-9.06567900000000	46.00857700000000	-12.34733100000000	0.27687100000000	0.00000000000000	0.12412300000000	-49.93076400000000	796.87950300000000	-52.04970300000000	0.07777200000000	0.00000000000000	-0.05510300000000	0.00000000000000	-5.73994500000000	0.00000000000000	0.00000000000000	-11.91866600000000	0.00000000000000	
2.91831500000000	-9.81435000000000	52.63034600000000	-13.59186300000000	0.27927600000000	0.00000000000000	0.12501700000000	-50.43896400000000	794.98711500000002	-51.72625400000000	0.07708700000000	0.00000000000000	-0.05499600000000	0.00000000000000	-6.37244300000000	0.00000000000000	0.00000000000000	-11.84973100000000	0.00000000000000	
2.91998400000000	-10.40822900000000	59.19379500000000	-14.68366000000000	0.28159000000000	0.00000000000000	0.12584200000000	-50.95805700000000	792.98455899999999	-51.38511600000000	0.07640100000000	0.00000000000000	-0.05488500000000	0.00000000000000	-6.94611800000000	0.00000000000000	0.00000000000000	-11.78172900000000	0.00000000000000	
2.92165400000000	-10.83297200000000	65.63223800000000	-15.60367300000000	0.28382600000000	0.00000000000000	0.12660600000000	-51.48794700000000	790.86933599999998	-51.02613000000000	0.07571400000000	0.00000000000000	-0.05477000000000	0.00000000000000	-7.45167000000000	0.00000000000000	0.00000000000000	-11.71470100000000	0.00000000000000	
2.92331900000000	-11.08254200000000	71.90391900000000	-16.34276500000000	0.28599400000000	0.00000000000000	0.12731700000000	-52.02846800000000	788.63888199999997	-50.64914600000000	0.07502600000000	0.00000000000000	-0.05465100000000	0.00000000000000	-7.88419500000000	0.00000000000000	0.00000000000000	-11.64868400000000	0.00000000000000	
2.92498000000000	-11.15851700000000	77.99154600000000	-16.90100100000000	0.28810500000000	0.00000000000000	0.12798200000000	-52.57938600000000	786.29057599999999	-50.25402500000000	0.07433900000000	0.00000000000000	-0.05452800000000	0.00000000000000	-8.24294400000000	0.00000000000000	0.00000000000000	-11.58370200000000	0.00000000000000	
2.92665400000000	-11.06889000000000	83.89989700000000	-17.28630400000000	0.29016300000000	0.00000000000000	0.12860600000000	-53.14039600000000	783.82174699999996	-49.84064100000000	0.07365300000000	0.00000000000000	-0.05440200000000	0.00000000000000	-8.53077700000000	0.00000000000000	0.00000000000000	-11.51977300000000	0.00000000000000	
2.92832100000000	-10.82656200000000	89.65202700000000	-17.51270200000000	0.29217500000000	0.00000000000000	0.12919300000000	-53.71111900000000	781.22967800000004	-49.40888000000000	0.07296900000000	0.00000000000000	-0.05427100000000	0.00000000000000	-8.75342000000000	0.00000000000000	0.00000000000000	-11.45690800000000	0.00000000000000	
2.92999700000000	-10.44768900000000	95.28462800000000	-17.59837700000000	0.29414500000000	0.00000000000000	0.12974700000000	-54.29110000000000	778.51161700000000	-48.95864400000000	0.07228700000000	0.00000000000000	-0.05413600000000	0.00000000000000	-8.91860100000000	0.00000000000000	0.00000000000000	-11.39510400000000	0.00000000000000	
2.93165100000000	-9.95006200000000	100.84309399999999	-17.56371400000000	0.29607600000000	0.00000000000000	0.13027100000000	-54.87981000000000	775.66477999999995	-48.48985000000000	0.07160900000000	0.00000000000000	-0.05399700000000	0.00000000000000	-9.03518200000000	0.00000000000000	0.00000000000000	-11.33435500000000	0.00000000000000	
2.93331500000000	-9.35162600000000	106.37671600000000	-17.42950900000000	0.29797000000000	0.00000000000000	0.13076800000000	-55.47663800000000	772.68636400000003	-48.00243500000000	0.07093400000000	0.00000000000000	-0.05385400000000	0.00000000000000	-9.11233300000000	0.00000000000000	0.00000000000000	-11.27464200000000	0.00000000000000	
2.93498300000000	-8.66925400000000	111.93438900000000	-17.21544800000000	0.29983000000000	0.00000000000000	0.13124100000000	-56.08089800000000	769.57355099999995	-47.49635500000000	0.07026300000000	0.00000000000000	-0.05370600000000	0.00000000000000	-9.15882400000000	0.00000000000000	0.00000000000000	-11.21593700000000	0.00000000000000	
2.93665200000000	-7.91781000000000	117.56107600000000	-16.93893800000000	0.30165600000000	0.00000000000000	0.13169100000000	-56.69182200000000	766.32352400000002	-46.97158900000000	0.06959800000000	0.00000000000000	-0.05355500000000	0.00000000000000	-9.18246500000000	0.00000000000000	0.00000000000000	-11.15820700000000	0.00000000000000	
2.93831600000000	-7.10953500000000	123.29516200000000	-16.61431100000000	0.30344800000000	0.00000000000000	0.13212100000000	-57.30856000000000	762.93347400000005	-46.42813800000000	0.06893700000000	0.00000000000000	-0.05339900000000	0.00000000000000	-9.18971100000000	0.00000000000000	0.00000000000000	-11.10140400000000	0.00000000000000	
2.93999700000000	-6.25374100000000	129.16675100000000	-16.25240000000000	0.30520800000000	0.00000000000000	0.13253100000000	-57.93018400000000	759.40060700000004	-45.86603000000000	0.06828300000000	0.00000000000000	-0.05323900000000	0.00000000000000	-9.18543600000000	0.00000000000000	0.00000000000000	-11.04547700000000	0.00000000000000	
2.94165000000000	-5.35678000000000	135.19686400000001	-15.86045700000000	0.30693500000000	0.00000000000000	0.13292400000000	-58.55568300000000	755.72216200000003	-45.28532000000000	0.06763600000000	0.00000000000000	-0.05307500000000	0.00000000000000	-9.17286300000000	0.00000000000000	0.00000000000000	-10.99036100000000	0.00000000000000	
2.94331500000000	-4.42224800000000	141.39743200000001	-15.44234700000000	0.30862800000000	0.00000000000000	0.13330100000000	-59.18396600000000	751.89541599999995	-44.68609000000000	0.06699500000000	0.00000000000000	-0.05290700000000	0.00000000000000	-9.15363200000000	0.00000000000000	0.00000000000000	-10.93598700000000	0.00000000000000	
